<?xml version="1.0" encoding="iso-8859-1"?>
<!-- Generator: Adobe Illustrator 19.0.0, SVG Export Plug-In . SVG Version: 6.00 Build 0)  -->
<svg version="1.1" id="Capa_1" xmlns="http://www.w3.org/2000/svg" xmlns:xlink="http://www.w3.org/1999/xlink" x="0px" y="0px"
	 viewBox="0 0 512 512" style="enable-background:new 0 0 512 512;" xml:space="preserve">
<circle style="fill:#E25F3F;" cx="256" cy="256" r="256"/>
<path style="fill:#BF2717;" d="M511.949,251.952L284.207,24.21c-43.654,0-37.719,0-56.414,0l-8.01,90.485h0.264l-41.7,38.235
	c0,9.31,0,267.118,0,284.8H167V476l28.883,28.883C215.166,509.524,235.292,512,256,512c141.385,0,256-114.615,256-256
	C512,254.646,511.97,253.3,511.949,251.952z"/>
<polygon style="fill:#FFFFFF;" points="333.652,437.73 178.347,437.73 178.347,152.93 256,81.73 333.652,152.93 "/>
<polygon style="fill:#ACACB2;" points="255.514,82.175 255.514,437.73 333.652,437.73 333.652,152.93 256,81.73 "/>
<rect x="167" y="437.73" style="fill:#E1E1E3;" width="178" height="38.27"/>
<polygon style="fill:#FDF7D0;" points="284.207,24.21 227.793,24.21 219.783,114.695 292.217,114.695 "/>
<polygon style="fill:#F9ED9D;" points="255.514,114.695 292.217,114.695 284.207,24.21 255.514,24.21 "/>
<rect x="178.35" y="194.35" style="fill:#C3DA49;" width="155.31" height="200.65"/>
<rect x="255.51" y="194.35" style="fill:#40814B;" width="78.14" height="200.65"/>
<rect x="255.51" y="437.73" style="fill:#D9D8DB;" width="89.49" height="38.27"/>
<g>
</g>
<g>
</g>
<g>
</g>
<g>
</g>
<g>
</g>
<g>
</g>
<g>
</g>
<g>
</g>
<g>
</g>
<g>
</g>
<g>
</g>
<g>
</g>
<g>
</g>
<g>
</g>
<g>
</g>
</svg>
