<?xml version="1.0" encoding="iso-8859-1"?>
<!-- Generator: Adobe Illustrator 19.0.0, SVG Export Plug-In . SVG Version: 6.00 Build 0)  -->
<svg version="1.1" id="Capa_1" xmlns="http://www.w3.org/2000/svg" xmlns:xlink="http://www.w3.org/1999/xlink" x="0px" y="0px"
	 viewBox="0 0 512 512" style="enable-background:new 0 0 512 512;" xml:space="preserve">
<circle style="fill:#FFCF35;" cx="256" cy="256" r="256"/>
<path style="fill:#FFB344;" d="M512,256c0-17.715-1.801-35.01-5.227-51.712L394.984,92.499L220.833,208.881L111.667,401.014
	l108.474,108.474C231.86,511.131,243.828,512,256,512C397.385,512,512,397.385,512,256z"/>
<path style="fill:#FFFFFF;" d="M167.508,283.555c0,0,36.176-143.777,175.779-184.128s-42.206,69.57-42.206,69.57
	s38.611-15.305,42.438-0.696c5.586,21.329-63.656,32.002-167.663,117.573L167.508,283.555z"/>
<path style="fill:#E0E0E0;" d="M343.287,99.427c-35.4,10.232-64.139,27.12-87.335,46.623v82.585
	c57.52-35.337,91.548-45.134,87.567-60.334c-3.826-14.609-42.437,0.696-42.437,0.696S482.89,59.077,343.287,99.427z"/>
<rect x="142.01" y="273.1" style="fill:#333333;" width="75.79" height="23.17"/>
<rect x="179.17" y="273.1" style="fill:#1A1A1A;" width="38.634" height="23.17"/>
<polygon style="fill:#666666;" points="227.951,291.984 131.859,291.984 111.667,327.992 111.667,401.014 248.143,401.014 
	248.143,327.992 "/>
<polygon style="fill:#4D4D4D;" points="248.143,327.992 227.951,291.984 179.167,291.984 179.167,401.014 248.143,401.014 "/>
<rect x="121.61" y="343.6" style="fill:#333333;" width="116.58" height="45.576"/>
<rect x="179.17" y="343.6" style="fill:#1A1A1A;" width="59.03" height="45.576"/>
<g>
</g>
<g>
</g>
<g>
</g>
<g>
</g>
<g>
</g>
<g>
</g>
<g>
</g>
<g>
</g>
<g>
</g>
<g>
</g>
<g>
</g>
<g>
</g>
<g>
</g>
<g>
</g>
<g>
</g>
</svg>
