<?xml version="1.0" encoding="iso-8859-1"?>
<!-- Generator: Adobe Illustrator 19.0.0, SVG Export Plug-In . SVG Version: 6.00 Build 0)  -->
<svg version="1.1" id="Layer_1" xmlns="http://www.w3.org/2000/svg" xmlns:xlink="http://www.w3.org/1999/xlink" x="0px" y="0px"
	 viewBox="0 0 512 512" style="enable-background:new 0 0 512 512;" xml:space="preserve">
<g>
	<rect x="192.333" y="98.41" style="fill:#E54728;" width="16.822" height="37.893"/>
	<rect x="232.37" y="98.41" style="fill:#E54728;" width="16.822" height="37.893"/>
	<rect x="272.419" y="98.41" style="fill:#E54728;" width="16.822" height="37.893"/>
	<rect x="312.455" y="98.41" style="fill:#E54728;" width="16.822" height="37.893"/>
	<rect x="352.492" y="98.41" style="fill:#E54728;" width="16.822" height="37.893"/>
	<rect x="392.529" y="98.41" style="fill:#E54728;" width="16.822" height="37.893"/>
	<rect x="432.566" y="98.41" style="fill:#E54728;" width="16.822" height="37.893"/>
	<rect x="472.615" y="98.41" style="fill:#E54728;" width="16.822" height="37.893"/>
	<rect x="192.333" y="474.107" style="fill:#E54728;" width="16.822" height="37.893"/>
	<rect x="232.37" y="474.107" style="fill:#E54728;" width="16.822" height="37.893"/>
	<rect x="272.419" y="474.107" style="fill:#E54728;" width="16.822" height="37.893"/>
	<rect x="312.455" y="474.107" style="fill:#E54728;" width="16.822" height="37.893"/>
	<rect x="352.492" y="474.107" style="fill:#E54728;" width="16.822" height="37.893"/>
	<rect x="392.529" y="474.107" style="fill:#E54728;" width="16.822" height="37.893"/>
	<rect x="432.566" y="474.107" style="fill:#E54728;" width="16.822" height="37.893"/>
	<rect x="472.615" y="474.107" style="fill:#E54728;" width="16.822" height="37.893"/>
</g>
<polyline style="fill:#F95428;" points="404.548,127.159 446.994,127.159 489.431,127.159 489.431,483.252 446.994,483.252 
	404.548,483.252 362.101,483.252 319.666,483.252 277.218,483.252 234.783,483.252 192.336,483.252 192.336,434.789 "/>
<g>
	<rect x="192.333" y="381.585" style="fill:#E54728;" width="297.092" height="51.723"/>
	<rect x="192.333" y="278.15" style="fill:#E54728;" width="297.092" height="51.723"/>
	<rect x="192.333" y="174.705" style="fill:#E54728;" width="297.092" height="51.723"/>
</g>
<g>
	<rect x="107.448" y="48.459" style="fill:#F7B239;" width="16.822" height="37.893"/>
	<rect x="147.485" y="48.459" style="fill:#F7B239;" width="16.822" height="37.893"/>
	<rect x="187.533" y="48.459" style="fill:#F7B239;" width="16.822" height="37.893"/>
	<rect x="227.57" y="48.459" style="fill:#F7B239;" width="16.822" height="37.893"/>
	<rect x="267.607" y="48.459" style="fill:#F7B239;" width="16.822" height="37.893"/>
	<rect x="307.644" y="48.459" style="fill:#F7B239;" width="16.822" height="37.893"/>
	<rect x="347.681" y="48.459" style="fill:#F7B239;" width="16.822" height="37.893"/>
	<rect x="387.73" y="48.459" style="fill:#F7B239;" width="16.822" height="37.893"/>
	<rect x="107.448" y="424.156" style="fill:#F7B239;" width="16.822" height="37.893"/>
	<rect x="147.485" y="424.156" style="fill:#F7B239;" width="16.822" height="37.893"/>
	<rect x="187.533" y="424.156" style="fill:#F7B239;" width="16.822" height="37.893"/>
	<rect x="227.57" y="424.156" style="fill:#F7B239;" width="16.822" height="37.893"/>
	<rect x="267.607" y="424.156" style="fill:#F7B239;" width="16.822" height="37.893"/>
	<rect x="307.644" y="424.156" style="fill:#F7B239;" width="16.822" height="37.893"/>
	<rect x="347.681" y="424.156" style="fill:#F7B239;" width="16.822" height="37.893"/>
	<rect x="387.73" y="424.156" style="fill:#F7B239;" width="16.822" height="37.893"/>
	<polygon style="fill:#F7B239;" points="319.664,77.211 362.11,77.211 404.546,77.211 404.546,433.303 362.11,433.303 
		319.664,433.303 277.217,433.303 234.782,433.303 192.334,433.303 149.899,433.303 107.452,433.303 107.452,384.842 	"/>
</g>
<g>
	<rect x="22.563" style="fill:#2197D8;" width="16.822" height="37.893"/>
	<rect x="62.608" style="fill:#2197D8;" width="16.822" height="37.893"/>
	<rect x="102.648" style="fill:#2197D8;" width="16.822" height="37.893"/>
	<rect x="142.685" style="fill:#2197D8;" width="16.822" height="37.893"/>
	<rect x="182.722" style="fill:#2197D8;" width="16.822" height="37.893"/>
	<rect x="222.759" style="fill:#2197D8;" width="16.822" height="37.893"/>
	<rect x="262.807" style="fill:#2197D8;" width="16.822" height="37.893"/>
	<rect x="302.844" style="fill:#2197D8;" width="16.822" height="37.893"/>
	<rect x="22.563" y="375.697" style="fill:#2197D8;" width="16.822" height="37.893"/>
	<rect x="62.608" y="375.697" style="fill:#2197D8;" width="16.822" height="37.893"/>
	<rect x="102.648" y="375.697" style="fill:#2197D8;" width="16.822" height="37.893"/>
	<rect x="142.685" y="375.697" style="fill:#2197D8;" width="16.822" height="37.893"/>
	<rect x="182.722" y="375.697" style="fill:#2197D8;" width="16.822" height="37.893"/>
	<rect x="222.759" y="375.697" style="fill:#2197D8;" width="16.822" height="37.893"/>
	<rect x="262.807" y="375.697" style="fill:#2197D8;" width="16.822" height="37.893"/>
	<rect x="302.844" y="375.697" style="fill:#2197D8;" width="16.822" height="37.893"/>
</g>
<rect x="22.563" y="28.753" style="fill:#2BA5F7;" width="297.092" height="356.094"/>
<path style="fill:#2197D8;" d="M146.801,123.103c17.889,0.664,32.174,15.361,32.174,33.408c0,18.457-14.961,33.428-33.428,33.428
	c-15.793,0-29.025-10.957-32.522-25.685"/>
<circle style="fill:#6EC7F9;" cx="101.583" cy="120.403" r="45.297"/>
<circle style="fill:#2197D8;" cx="198.513" cy="282.648" r="26.338"/>
<g>
	<circle style="fill:#6EC7F9;" cx="236.834" cy="108.145" r="26.338"/>
	<circle style="fill:#6EC7F9;" cx="200.094" cy="174.043" r="13.153"/>
	<circle style="fill:#6EC7F9;" cx="172.057" cy="344.509" r="13.153"/>
</g>
<g>
	<circle style="fill:#2197D8;" cx="293.323" cy="314.621" r="13.153"/>
	<circle style="fill:#2197D8;" cx="94.506" cy="74.926" r="13.153"/>
	<path style="fill:#2197D8;" d="M104.407,298.209c1.201,3.002,1.854,6.279,1.854,9.713c0,14.549-11.789,26.338-26.338,26.338
		s-26.338-11.789-26.338-26.338c0-7.459,3.108-14.201,8.092-18.974"/>
	<circle style="fill:#2197D8;" cx="264.882" cy="216.278" r="35.82"/>
</g>
<g>
	<circle style="fill:#6EC7F9;" cx="90.66" cy="258.367" r="42.141"/>
	<path style="fill:#6EC7F9;" d="M319.66,319.34v65.506h-57.745c-4.643-7.11-7.346-15.611-7.346-24.74
		c0-25.02,20.288-45.308,45.308-45.308C306.965,314.798,313.682,316.424,319.66,319.34z"/>
</g>
<g>
</g>
<g>
</g>
<g>
</g>
<g>
</g>
<g>
</g>
<g>
</g>
<g>
</g>
<g>
</g>
<g>
</g>
<g>
</g>
<g>
</g>
<g>
</g>
<g>
</g>
<g>
</g>
<g>
</g>
</svg>
