<?xml version="1.0" encoding="iso-8859-1"?>
<!-- Generator: Adobe Illustrator 19.0.0, SVG Export Plug-In . SVG Version: 6.00 Build 0)  -->
<svg version="1.1" id="Layer_1" xmlns="http://www.w3.org/2000/svg" xmlns:xlink="http://www.w3.org/1999/xlink" x="0px" y="0px"
	 viewBox="0 0 460 460" style="enable-background:new 0 0 460 460;" xml:space="preserve">
<g id="XMLID_309_">
	<g id="XMLID_311_">
		<path id="XMLID_312_" style="fill:#FFE278;" d="M230,0C102.975,0,0,102.975,0,230c0,101.279,65.463,187.268,156.384,217.964
			l288.73-299.492C412.206,61.693,328.314,0,230,0z"/>
	</g>
	<path id="XMLID_39_" style="fill:#FFAE46;" d="M445.114,148.472L385.392,88.75L112.494,404.075l43.89,43.89
		C179.497,455.768,204.254,460,230,460c127.025,0,230-102.975,230-230C460,201.289,454.724,173.814,445.114,148.472z"/>
	<polygon id="XMLID_38_" style="fill:#487ED2;" points="385.392,88.75 371.25,74.608 317.555,100.019 310.484,92.948 
		55.925,347.506 112.494,404.075 367.052,149.516 359.981,142.445 	"/>
	
		<rect id="XMLID_37_" x="79.564" y="330.438" transform="matrix(0.7071 0.7071 -0.7071 0.7071 275.7455 15.1679)" style="fill:#FFFFFF;" width="79.999" height="20"/>
	
		<rect id="XMLID_36_" x="293.41" y="116.588" transform="matrix(-0.7071 0.7071 -0.7071 -0.7071 628.6769 52.7692)" style="fill:#FFFFFF;" width="20" height="79.999"/>
	
		<rect id="XMLID_35_" x="171.489" y="128.515" transform="matrix(0.7071 0.7071 -0.7071 0.7071 237.6697 -76.7568)" style="fill:#73A7E6;" width="79.999" height="239.998"/>
	<polygon id="XMLID_34_" style="fill:#DB3916;" points="149.516,92.948 142.445,100.019 88.75,74.608 74.608,88.75 100.019,142.445 
		92.948,149.516 347.506,404.075 404.075,347.506 	"/>
	
		<rect id="XMLID_33_" x="300.431" y="330.435" transform="matrix(-0.7071 0.7071 -0.7071 -0.7071 821.8749 340.4383)" style="fill:#FFFFFF;" width="79.999" height="20"/>
	
		<rect id="XMLID_32_" x="146.587" y="116.59" transform="matrix(0.7071 0.7071 -0.7071 0.7071 156.589 -64.8599)" style="fill:#FFFFFF;" width="20" height="79.999"/>
	
		<rect id="XMLID_3_" x="208.508" y="128.512" transform="matrix(-0.7071 0.7071 -0.7071 -0.7071 599.9528 248.5136)" style="fill:#FC5A37;" width="79.999" height="239.998"/>
</g>
<g>
</g>
<g>
</g>
<g>
</g>
<g>
</g>
<g>
</g>
<g>
</g>
<g>
</g>
<g>
</g>
<g>
</g>
<g>
</g>
<g>
</g>
<g>
</g>
<g>
</g>
<g>
</g>
<g>
</g>
</svg>
