<?xml version="1.0" encoding="iso-8859-1"?>
<!-- Generator: Adobe Illustrator 19.0.0, SVG Export Plug-In . SVG Version: 6.00 Build 0)  -->
<svg version="1.1" id="Layer_1" xmlns="http://www.w3.org/2000/svg" xmlns:xlink="http://www.w3.org/1999/xlink" x="0px" y="0px"
	 viewBox="0 0 512 512" style="enable-background:new 0 0 512 512;" xml:space="preserve">
<circle style="fill:#FFC61B;" cx="256" cy="256" r="256"/>
<path style="fill:#EAA22F;" d="M512,256c0-6.28-0.236-12.504-0.681-18.67L393.211,119.222l-38.743,156.377L170.667,91.798
	l4.31,302.976l114.979,114.979C415.287,493.142,512,385.872,512,256z"/>
<path style="fill:#386895;" d="M273.813,398.222h106.596c9.838,0,17.813-7.975,17.813-17.813V131.591
	c0-9.838-7.975-17.813-17.813-17.813H273.813c-9.838,0-17.813,7.975-17.813,17.813v248.818
	C256,390.247,263.975,398.222,273.813,398.222z"/>
<path style="fill:#273B7A;" d="M380.409,113.778h-54.303v284.444h54.303c9.838,0,17.813-7.975,17.813-17.813V131.591
	C398.222,121.753,390.247,113.778,380.409,113.778z"/>
<g>
	<circle style="fill:#FFEDB5;" cx="293.926" cy="161.185" r="14.222"/>
	<circle style="fill:#FFEDB5;" cx="293.926" cy="208.593" r="14.222"/>
	<circle style="fill:#FFEDB5;" cx="293.926" cy="256" r="14.222"/>
	<circle style="fill:#FFEDB5;" cx="293.926" cy="303.407" r="14.222"/>
	<circle style="fill:#FFEDB5;" cx="293.926" cy="350.815" r="14.222"/>
	<circle style="fill:#FFEDB5;" cx="355.556" cy="161.185" r="14.222"/>
	<circle style="fill:#FFEDB5;" cx="355.556" cy="208.593" r="14.222"/>
	<circle style="fill:#FFEDB5;" cx="355.556" cy="256" r="14.222"/>
	<circle style="fill:#FFEDB5;" cx="355.556" cy="303.407" r="14.222"/>
	<circle style="fill:#FFEDB5;" cx="355.556" cy="350.815" r="14.222"/>
</g>
<path style="fill:#273B7A;" d="M170.667,398.222L170.667,398.222c9.997,0,18.101-8.104,18.101-18.101v-181.01h-36.202v181.01
	C152.566,390.118,160.67,398.222,170.667,398.222z"/>
<path style="fill:#121149;" d="M170.524,199.111v199.104c0.048,0,0.095,0.007,0.143,0.007c9.997,0,18.101-8.104,18.101-18.101
	v-181.01H170.524z"/>
<polygon style="fill:#5B85A8;" points="152.566,199.111 188.768,199.111 179.717,142.222 161.616,142.222 "/>
<polygon style="fill:#386895;" points="179.717,142.222 170.524,142.222 170.524,199.111 188.768,199.111 "/>
<path style="fill:#E03A00;" d="M194.801,140.067c0,13.329-10.805,24.135-24.135,24.135c-13.329,0-24.135-10.805-24.135-24.135
	s24.135-48.269,24.135-48.269S194.801,126.738,194.801,140.067z"/>
<path style="fill:#C92F00;" d="M170.667,91.798c0,0-0.059,0.086-0.143,0.209v72.189c0.048,0,0.095,0.007,0.143,0.007
	c13.329,0,24.135-10.805,24.135-24.135S170.667,91.798,170.667,91.798z"/>
<path style="fill:#366695;" d="M155.152,208.593h31.03c5.713,0,10.343-4.63,10.343-10.343l0,0c0-5.713-4.63-10.343-10.343-10.343
	h-31.03c-5.713,0-10.343,4.63-10.343,10.343l0,0C144.808,203.962,149.438,208.593,155.152,208.593z"/>
<path style="fill:#273B7A;" d="M186.182,187.906h-15.658v20.687h15.658c5.713,0,10.343-4.63,10.343-10.343
	C196.525,192.536,191.895,187.906,186.182,187.906z"/>
<g>
</g>
<g>
</g>
<g>
</g>
<g>
</g>
<g>
</g>
<g>
</g>
<g>
</g>
<g>
</g>
<g>
</g>
<g>
</g>
<g>
</g>
<g>
</g>
<g>
</g>
<g>
</g>
<g>
</g>
</svg>
